<svg viewBox = "0 0 1500 800" xmlns = "http://www.w3.org/2000/svg"><line x1="1050" y1="60" x2="900" y2="60" stroke="black"  stroke-width ="2"/><ellipse cx ="1050" cy ="60" rx ="120" ry ="40" stroke ="#555" fill ="#0f0" stroke-width ="1" /><text x = "1050" y = "40" text-anchor="middle"></text><text x = "1050" y = "60" text-anchor="middle">[0.223927, 0.665960, 0.110113]</text><text x = "1050" y = "80" text-anchor="middle">f=0.135133</text><text x = "1050" y = "15" text-anchor="middle">H(B|A2_1,A1_1,A3_1) = 2.482065</text><line x1="1050" y1="174.286" x2="900" y2="174.286" stroke="black"  stroke-width ="2"/><ellipse cx ="1050" cy ="174.286" rx ="120" ry ="40" stroke ="#555" fill ="#0f0" stroke-width ="1" /><text x = "1050" y = "154.286" text-anchor="middle"></text><text x = "1050" y = "174.286" text-anchor="middle">[0.124216, 0.621785, 0.253999]</text><text x = "1050" y = "194.286" text-anchor="middle">f=0.150867</text><text x = "1050" y = "129.286" text-anchor="middle">H(B|A2_1,A1_1,A3_2) = 2.946877</text><line x1="750" y1="117.143" x2="900" y2="117.143" stroke="black" stroke-width ="2"/><text x = "750" y = "172.143" text-anchor="middle">H(B|A2_1,A1_1,A3) = 5.428941</text><text x = "750" y = "187.143" text-anchor="middle">I(B|A2_1,A1_1,A3) = 0.136743</text><line x1="900" y1="60" x2="900" y2="174.286" stroke="black" stroke-width ="2"/><line x1="750" y1="117.143" x2="600" y2="117.143" stroke="black"  stroke-width ="2"/><ellipse cx ="750" cy ="117.143" rx ="120" ry ="40" stroke ="#555" fill ="#f0f" stroke-width ="1" /><text x = "750" y = "97.1429" text-anchor="middle">A3</text><text x = "750" y = "117.143" text-anchor="middle">[0.171329, 0.642657, 0.186014]</text><text x = "750" y = "137.143" text-anchor="middle">f=0.286000</text><text x = "750" y = "72.1429" text-anchor="middle">H(B|A2_1,A1_1) = 5.565684</text><line x1="750" y1="288.571" x2="600" y2="288.571" stroke="black"  stroke-width ="2"/><ellipse cx ="750" cy ="288.571" rx ="120" ry ="40" stroke ="#555" fill ="#0f0" stroke-width ="1" /><text x = "750" y = "268.571" text-anchor="middle"></text><text x = "750" y = "288.571" text-anchor="middle">[0.404762, 0.455844, 0.139394]</text><text x = "750" y = "308.571" text-anchor="middle">f=0.154000</text><text x = "750" y = "243.571" text-anchor="middle">H(B|A2_1,A1_2) = 3.328864</text><line x1="450" y1="202.857" x2="600" y2="202.857" stroke="black" stroke-width ="2"/><text x = "450" y = "257.857" text-anchor="middle">H(B|A2_1,A1) = 8.894548</text><text x = "450" y = "272.857" text-anchor="middle">I(B|A2_1,A1) = 0.302559</text><line x1="600" y1="117.143" x2="600" y2="288.571" stroke="black" stroke-width ="2"/><line x1="450" y1="202.857" x2="300" y2="202.857" stroke="black"  stroke-width ="2"/><ellipse cx ="450" cy ="202.857" rx ="120" ry ="40" stroke ="#555" fill ="#f0f" stroke-width ="1" /><text x = "450" y = "182.857" text-anchor="middle">A1</text><text x = "450" y = "202.857" text-anchor="middle">[0.253030, 0.577273, 0.169697]</text><text x = "450" y = "222.857" text-anchor="middle">f=0.440000</text><text x = "450" y = "157.857" text-anchor="middle">H(B|A2_1) = 9.197107</text><line x1="750" y1="402.857" x2="600" y2="402.857" stroke="black"  stroke-width ="2"/><ellipse cx ="750" cy ="402.857" rx ="120" ry ="40" stroke ="#555" fill ="#0f0" stroke-width ="1" /><text x = "750" y = "382.857" text-anchor="middle"></text><text x = "750" y = "402.857" text-anchor="middle">[0.120417, 0.615417, 0.264167]</text><text x = "750" y = "422.857" text-anchor="middle">f=0.160000</text><text x = "750" y = "357.857" text-anchor="middle">H(B|A2_2,A3_1) = 3.134597</text><line x1="1050" y1="517.143" x2="900" y2="517.143" stroke="black"  stroke-width ="2"/><ellipse cx ="1050" cy ="517.143" rx ="120" ry ="40" stroke ="#555" fill ="#0f0" stroke-width ="1" /><text x = "1050" y = "497.143" text-anchor="middle"></text><text x = "1050" y = "517.143" text-anchor="middle">[0.105495, 0.479572, 0.414933]</text><text x = "1050" y = "537.143" text-anchor="middle">f=0.158933</text><text x = "1050" y = "472.143" text-anchor="middle">H(B|A2_2,A3_2,A1_1) = 3.283504</text><line x1="1050" y1="631.429" x2="900" y2="631.429" stroke="black"  stroke-width ="2"/><ellipse cx ="1050" cy ="631.429" rx ="120" ry ="40" stroke ="#555" fill ="#0f0" stroke-width ="1" /><text x = "1050" y = "611.429" text-anchor="middle"></text><text x = "1050" y = "631.429" text-anchor="middle">[0.187630, 0.312996, 0.499374]</text><text x = "1050" y = "651.429" text-anchor="middle">f=0.127733</text><text x = "1050" y = "586.429" text-anchor="middle">H(B|A2_2,A3_2,A1_2) = 2.831343</text><line x1="750" y1="574.286" x2="900" y2="574.286" stroke="black" stroke-width ="2"/><text x = "750" y = "629.286" text-anchor="middle">H(B|A2_2,A3_2,A1) = 6.114846</text><text x = "750" y = "644.286" text-anchor="middle">I(B|A2_2,A3_2,A1) = 0.101777</text><line x1="900" y1="517.143" x2="900" y2="631.429" stroke="black" stroke-width ="2"/><line x1="750" y1="574.286" x2="600" y2="574.286" stroke="black"  stroke-width ="2"/><ellipse cx ="750" cy ="574.286" rx ="120" ry ="40" stroke ="#555" fill ="#f0f" stroke-width ="1" /><text x = "750" y = "554.286" text-anchor="middle">A1</text><text x = "750" y = "574.286" text-anchor="middle">[0.142093, 0.405349, 0.452558]</text><text x = "750" y = "594.286" text-anchor="middle">f=0.286667</text><text x = "750" y = "529.286" text-anchor="middle">H(B|A2_2,A3_2) = 6.216623</text><line x1="450" y1="488.571" x2="600" y2="488.571" stroke="black" stroke-width ="2"/><text x = "450" y = "543.571" text-anchor="middle">H(B|A2_2,A3) = 9.351221</text><text x = "450" y = "558.571" text-anchor="middle">I(B|A2_2,A3) = 0.211309</text><line x1="600" y1="402.857" x2="600" y2="574.286" stroke="black" stroke-width ="2"/><line x1="450" y1="488.571" x2="300" y2="488.571" stroke="black"  stroke-width ="2"/><ellipse cx ="450" cy ="488.571" rx ="120" ry ="40" stroke ="#555" fill ="#f0f" stroke-width ="1" /><text x = "450" y = "468.571" text-anchor="middle">A3</text><text x = "450" y = "488.571" text-anchor="middle">[0.134328, 0.480597, 0.385075]</text><text x = "450" y = "508.571" text-anchor="middle">f=0.446667</text><text x = "450" y = "443.571" text-anchor="middle">H(B|A2_2) = 9.562531</text><line x1="450" y1="745.714" x2="300" y2="745.714" stroke="black"  stroke-width ="2"/><ellipse cx ="450" cy ="745.714" rx ="120" ry ="40" stroke ="#555" fill ="#0f0" stroke-width ="1" /><text x = "450" y = "725.714" text-anchor="middle"></text><text x = "450" y = "745.714" text-anchor="middle">[0.017647, 0.688235, 0.294118]</text><text x = "450" y = "765.714" text-anchor="middle">f=0.113333</text><text x = "450" y = "700.714" text-anchor="middle">H(B|A2_3) = 1.688161</text><line x1="150" y1="479.048" x2="300" y2="479.048" stroke="black" stroke-width ="2"/><text x = "150" y = "534.048" text-anchor="middle">H(B|A2) = 20.447800</text><text x = "150" y = "549.048" text-anchor="middle">I(B|A2) = 0.983679</text><line x1="300" y1="202.857" x2="300" y2="745.714" stroke="black" stroke-width ="2"/><line x1="150" y1="479.048" x2="0" y2="479.048" stroke="black"  stroke-width ="2"/><ellipse cx ="150" cy ="479.048" rx ="120" ry ="40" stroke ="#555" fill ="#f0f" stroke-width ="1" /><text x = "150" y = "459.048" text-anchor="middle">A2</text><text x = "150" y = "479.048" text-anchor="middle">[0.173333, 0.546667, 0.280000]</text><text x = "150" y = "499.048" text-anchor="middle">f=1.000000</text><text x = "150" y = "434.048" text-anchor="middle">H(B) = 21.431479</text></svg>